<svg width="484" height="350" viewBox="0 0 484 350" fill="none" xmlns="http://www.w3.org/2000/svg">
<g clip-path="url(#clip0_500:1053)">
<path d="M96.9901 350C139.528 350 174.012 346.642 174.012 342.5C174.012 338.358 139.528 335 96.9901 335C54.4523 335 19.9685 338.358 19.9685 342.5C19.9685 346.642 54.4523 350 96.9901 350Z" fill="#E6E6E6"/>
<path d="M73.7122 77.6588C90.4945 70.2397 111.397 74.9404 131.811 78.2028C132.001 74.252 134.304 69.4436 131.892 66.6873C128.961 63.3386 129.231 59.8201 130.994 56.2813C135.503 47.232 129.043 37.6032 122.52 29.5968C121.05 27.7963 119.192 26.3816 117.097 25.4677C115.002 24.5537 112.729 24.1663 110.463 24.3368L98.3795 25.2339C95.4392 25.4522 92.6331 26.5986 90.3368 28.5197C88.0405 30.4408 86.3634 33.0451 85.53 35.9839C82.6448 40.0624 81.1005 44.1296 82.0728 48.1755C77.7512 51.2451 77.0251 54.9504 78.9671 59.1275C80.6138 61.7575 80.5963 64.3176 78.8922 66.8069C76.6542 69.9805 74.9401 73.5191 73.8202 77.2778L73.7122 77.6588Z" fill="#2F2E41"/>
<path d="M472.531 302.569H130.485C127.444 302.569 124.526 301.313 122.376 299.078C120.225 296.842 119.016 293.81 119.016 290.649C243.008 275.671 364.669 275.671 484 290.649C484 293.81 482.792 296.842 480.641 299.078C478.49 301.313 475.573 302.569 472.531 302.569Z" fill="#2F2E41"/>
<path d="M484 291.35L119.016 290.649L161.317 216.672L161.519 216.321V53.2844C161.519 51.3055 161.894 49.3459 162.622 47.5176C163.351 45.6893 164.419 44.0281 165.765 42.6288C167.111 41.2295 168.71 40.1195 170.469 39.3623C172.228 38.6051 174.113 38.2154 176.017 38.2156H424.975C426.879 38.2154 428.764 38.6051 430.524 39.3623C432.283 40.1195 433.881 41.2295 435.227 42.6288C436.574 44.0281 437.641 45.6893 438.37 47.5176C439.099 49.3459 439.473 51.3055 439.473 53.2844V217.443L484 291.35Z" fill="#3F3D56"/>
<path d="M175.687 48.7336C174.435 48.7351 173.234 49.2527 172.349 50.1729C171.464 51.0931 170.966 52.3407 170.964 53.6421V202.297C170.966 203.599 171.464 204.846 172.349 205.766C173.234 206.687 174.435 207.204 175.687 207.206H427.33C428.582 207.204 429.782 206.686 430.667 205.766C431.553 204.846 432.051 203.599 432.052 202.297V53.6421C432.051 52.3407 431.553 51.0932 430.667 50.173C429.782 49.2528 428.582 48.7352 427.33 48.7336H175.687Z" fill="white"/>
<path d="M176.741 226.839C176.354 226.84 175.975 226.956 175.65 227.173C175.324 227.39 175.065 227.699 174.902 228.064L161.868 257.514C161.726 257.835 161.664 258.187 161.688 258.539C161.711 258.891 161.819 259.231 162.003 259.528C162.186 259.825 162.438 260.07 162.735 260.239C163.033 260.408 163.367 260.497 163.707 260.497H437.806C438.151 260.497 438.49 260.406 438.791 260.231C439.093 260.056 439.346 259.804 439.527 259.499C439.709 259.194 439.812 258.846 439.827 258.488C439.843 258.13 439.77 257.773 439.615 257.453L425.448 228.002C425.281 227.652 425.023 227.358 424.703 227.152C424.383 226.947 424.014 226.838 423.638 226.839H176.741Z" fill="#2F2E41"/>
<path d="M300.496 46.2795C302.173 46.2795 303.532 44.8667 303.532 43.124C303.532 41.3814 302.173 39.9686 300.496 39.9686C298.82 39.9686 297.46 41.3814 297.46 43.124C297.46 44.8667 298.82 46.2795 300.496 46.2795Z" fill="white"/>
<path d="M273.555 266.107C273.11 266.107 272.677 266.26 272.324 266.541C271.971 266.823 271.717 267.217 271.6 267.663L268.331 280.285C268.25 280.597 268.239 280.924 268.3 281.24C268.36 281.557 268.49 281.855 268.679 282.112C268.868 282.368 269.111 282.576 269.389 282.718C269.668 282.861 269.974 282.936 270.285 282.936H332.463C332.786 282.936 333.104 282.856 333.39 282.702C333.677 282.548 333.924 282.325 334.111 282.052C334.299 281.779 334.42 281.463 334.466 281.131C334.512 280.799 334.481 280.461 334.375 280.144L330.172 267.522C330.034 267.109 329.775 266.751 329.433 266.497C329.09 266.243 328.68 266.107 328.259 266.107H273.555Z" fill="#2F2E41"/>
<path d="M439.473 213.867V216.672H161.317L161.526 216.322V213.867H439.473Z" fill="#2F2E41"/>
<path d="M431.715 98.1685C457.797 98.1685 478.94 76.1927 478.94 49.0843C478.94 21.9758 457.797 0 431.715 0C405.633 0 384.49 21.9758 384.49 49.0843C384.49 76.1927 405.633 98.1685 431.715 98.1685Z" fill="#008BEA"/>
<path d="M451.28 70.471H412.15C411.435 70.4703 410.749 70.1745 410.243 69.6487C409.737 69.1228 409.452 68.4098 409.452 67.6662V43.124C409.452 42.3804 409.737 41.6674 410.243 41.1416C410.749 40.6158 411.435 40.32 412.15 40.3192H451.28C451.995 40.32 452.681 40.6158 453.187 41.1416C453.693 41.6674 453.978 42.3804 453.978 43.124V67.6661C453.978 68.4098 453.693 69.1228 453.187 69.6487C452.681 70.1745 451.995 70.4703 451.28 70.471ZM412.15 43.124V67.6662H451.282L451.28 43.124L412.15 43.124Z" fill="white"/>
<path d="M443.859 43.1241H419.571V31.9048C419.571 23.7787 424.679 17.8807 431.715 17.8807C438.751 17.8807 443.859 23.7787 443.859 31.9048L443.859 43.1241ZM422.27 40.3193H441.16V31.9048C441.16 25.2992 437.276 20.6856 431.715 20.6856C426.154 20.6856 422.27 25.2992 422.27 31.9048L422.27 40.3193Z" fill="white"/>
<path d="M431.715 57.4987C433.205 57.4987 434.413 56.2429 434.413 54.6939C434.413 53.1448 433.205 51.889 431.715 51.889C430.225 51.889 429.016 53.1448 429.016 54.6939C429.016 56.2429 430.225 57.4987 431.715 57.4987Z" fill="white"/>
<path d="M398.748 156.783H204.269C203.314 156.782 202.399 156.387 201.724 155.686C201.048 154.984 200.669 154.033 200.667 153.04V102.899C200.669 101.907 201.048 100.955 201.724 100.254C202.399 99.5519 203.314 99.1572 204.269 99.156H398.748C399.703 99.1572 400.618 99.5519 401.293 100.254C401.968 100.955 402.348 101.907 402.349 102.899V153.04C402.348 154.033 401.968 154.984 401.293 155.686C400.618 156.387 399.703 156.782 398.748 156.783ZM204.269 100.653C203.696 100.654 203.147 100.891 202.742 101.312C202.337 101.733 202.109 102.304 202.108 102.899V153.04C202.109 153.636 202.337 154.207 202.742 154.628C203.147 155.049 203.696 155.285 204.269 155.286H398.748C399.321 155.285 399.87 155.049 400.275 154.628C400.68 154.207 400.908 153.636 400.909 153.04V102.899C400.908 102.304 400.68 101.733 400.275 101.312C399.87 100.891 399.321 100.654 398.748 100.653L204.269 100.653Z" fill="#E6E6E6"/>
<path d="M234.487 141.294C242.589 141.294 249.157 134.467 249.157 126.046C249.157 117.625 242.589 110.798 234.487 110.798C226.385 110.798 219.816 117.625 219.816 126.046C219.816 134.467 226.385 141.294 234.487 141.294Z" fill="#E6E6E6"/>
<path d="M268.369 115.88C268.047 115.88 267.729 115.945 267.432 116.073C267.135 116.2 266.865 116.387 266.637 116.623C266.41 116.859 266.229 117.14 266.106 117.448C265.983 117.757 265.92 118.088 265.92 118.422C265.92 118.756 265.983 119.087 266.106 119.395C266.229 119.704 266.41 119.984 266.637 120.22C266.865 120.456 267.135 120.643 267.432 120.771C267.729 120.898 268.047 120.964 268.369 120.963H383.636C384.285 120.963 384.906 120.695 385.365 120.219C385.824 119.742 386.081 119.096 386.081 118.422C386.081 117.748 385.824 117.101 385.365 116.625C384.906 116.148 384.285 115.88 383.636 115.88H268.369Z" fill="#E6E6E6"/>
<path d="M268.369 131.128C267.72 131.128 267.098 131.396 266.64 131.873C266.181 132.349 265.924 132.996 265.924 133.67C265.924 134.344 266.181 134.99 266.64 135.467C267.098 135.943 267.72 136.211 268.369 136.211H317.969C318.617 136.211 319.239 135.943 319.698 135.467C320.156 134.99 320.414 134.344 320.414 133.67C320.414 132.996 320.156 132.349 319.698 131.873C319.239 131.396 318.617 131.128 317.969 131.128H268.369Z" fill="#E6E6E6"/>
<path d="M160.838 132.156L124.887 152.022L124.432 135.467C136.166 133.431 147.33 129.887 157.653 124.116L161.413 114.461C161.822 113.408 162.488 112.485 163.345 111.781C164.202 111.078 165.22 110.617 166.299 110.446C167.379 110.275 168.482 110.398 169.502 110.804C170.522 111.21 171.423 111.885 172.116 112.762C173.13 114.045 173.637 115.681 173.534 117.338C173.431 118.995 172.726 120.55 171.561 121.687L160.838 132.156Z" fill="#FFB8B8"/>
<path d="M72.9956 246.853C72.7333 245.853 72.6777 244.807 72.8322 243.783C72.9868 242.76 73.3481 241.781 73.8924 240.913L81.7898 228.316C83.6577 225.337 86.5239 223.184 89.8322 222.277C93.1405 221.37 96.6551 221.773 99.6941 223.407C96.3751 229.279 96.8378 234.43 100.84 238.906C94.6268 242.059 88.884 246.128 83.7899 250.988C82.8599 251.647 81.7919 252.065 80.6748 252.208C79.5577 252.352 78.4239 252.215 77.3679 251.811C76.3118 251.406 75.364 250.745 74.6035 249.883C73.843 249.02 73.2917 247.982 72.9956 246.853Z" fill="#2F2E41"/>
<path d="M162.476 230.382C161.281 232.452 159.594 234.168 157.577 235.366C155.56 236.563 153.281 237.201 150.958 237.22L98.4929 237.633L96.2175 223.916L119.426 216.821L99.8581 201.213L121.247 175.198L160.095 212.832C162.365 215.031 163.841 217.974 164.274 221.169C164.707 224.363 164.072 227.616 162.476 230.382Z" fill="#2F2E41"/>
<path d="M90.3016 324.19H78.0145C66.9826 245.593 55.7531 166.777 88.9363 137.359L128.073 143.981L123.067 178.509L101.223 204.524L90.3016 324.19Z" fill="#2F2E41"/>
<path d="M101.102 341.994C100.14 342.267 99.134 342.325 98.149 342.164C97.164 342.004 96.223 341.628 95.3876 341.063L82.0464 339.199C79.1797 337.258 77.1089 334.279 76.2359 330.84C75.3629 327.402 75.7499 323.749 77.3218 320.59C82.9716 324.039 87.9277 323.558 92.2346 319.398C95.2777 325.784 100.292 325.395 105.08 330.775C105.714 331.742 106.117 332.852 106.255 334.013C106.392 335.174 106.261 336.352 105.872 337.45C105.483 338.547 104.847 339.533 104.017 340.323C103.188 341.114 102.188 341.687 101.102 341.994Z" fill="#2F2E41"/>
<path d="M119.426 84.8576L96.6726 79.1817C100.452 71.1418 100.763 62.1958 98.948 52.6943L114.421 52.2213C114.905 64.0366 116.372 75.0751 119.426 84.8576Z" fill="#FFB8B8"/>
<path d="M125.68 158.223C109.116 169.954 97.4125 158.624 88.4813 141.143C89.7223 130.447 87.7129 117.646 83.9912 103.737C82.336 97.6021 82.954 91.0453 85.723 85.3609C88.492 79.6764 93.2109 75.2776 98.948 73.0328L118.516 81.5467C135.132 95.6235 138.402 110.872 132.168 126.954L125.68 158.223Z" fill="#008BEA"/>
<path d="M78.0144 96.6822L59.8114 106.615L92.1217 126.481L96.6174 138.007C96.9175 138.776 97.0637 139.601 97.0471 140.431C97.0305 141.261 96.8514 142.078 96.5208 142.834C96.1901 143.59 95.7149 144.267 95.1241 144.826C94.5332 145.384 93.8391 145.812 93.084 146.083C92.2257 146.39 91.3106 146.487 90.4102 146.366C89.5099 146.245 88.6488 145.908 87.8944 145.383C87.14 144.858 86.5127 144.159 86.0618 143.34C85.6108 142.521 85.3484 141.604 85.2951 140.662L84.8405 132.629L43.7745 118.544C42.3908 118.07 41.1293 117.274 40.0853 116.218C39.0413 115.161 38.2423 113.872 37.7488 112.447C37.0294 110.37 36.9928 108.104 37.6447 106.003C38.2965 103.902 39.6001 102.085 41.3514 100.836L74.3738 77.2897L78.0144 96.6822Z" fill="#FFB8B8"/>
<path d="M96.2173 98.5743C88.6255 95.1163 81.7222 98.8727 73.0085 101.885L71.6433 76.8168C80.2956 72.0237 88.5449 70.7314 96.2174 74.4518L96.2173 98.5743Z" fill="#008BEA"/>
<path d="M105.299 64.6386C113.322 64.6386 119.826 57.8784 119.826 49.5393C119.826 41.2002 113.322 34.4401 105.299 34.4401C97.2759 34.4401 90.7717 41.2002 90.7717 49.5393C90.7717 57.8784 97.2759 64.6386 105.299 64.6386Z" fill="#FFB8B8"/>
<path d="M122.678 47.6341C108.295 49.0983 97.335 46.6533 90.3303 39.6918V34.0854H121.458L122.678 47.6341Z" fill="#2F2E41"/>
</g>
<defs>
<clipPath id="clip0_500:1053">
<rect width="484" height="350" fill="white"/>
</clipPath>
</defs>
</svg>
